<svg xmlns="http://www.w3.org/2000/svg" id="STM" viewBox="0 0 1050 1050"><defs><style>.cls-1{fill:currentColor}</style></defs><path d="M888.32 329.54c-3.4-7.6-8.01-14.48-12.33-21.48-4.37-6.96-8.58-13.97-13.03-20.77-4.93-6.47-9.83-12.9-14.71-19.3-4.81-6.46-9.67-12.81-15.3-18.48-5.4-5.84-10.78-11.66-16.13-17.45-5.19-5.94-11.52-10.68-17.18-16.03-5.88-5.12-11.44-10.56-17.5-15.32q-9.315-6.87-18.54-13.68c-49.59-35.69-104.97-58.78-160.28-69.02-55.3-10.46-110.18-9.36-160.95 1.02-50.87 10.26-97.33 30.35-137.47 56.12-40.2 25.83-74.12 57.5-101.53 91.93q-5.04 6.555-10.02 13.05c-3.37 4.29-6.68 8.6-9.39 13.28-5.74 9.16-11.42 18.22-17.05 27.19-9.51 18.9-19.43 37.22-26 56.54q-2.745 7.125-5.46 14.19c-1.84 4.7-2.83 9.64-4.27 14.41-2.61 9.63-5.43 19.12-7.77 28.62-3.05 19.3-7.57 38.11-8.08 56.96-3.95 37.49-.66 74.09 5.5 108.34 5.77 34.52 17.3 66.33 30.06 96.05 27.2 58.77 64.3 107.93 107.42 144.8 42.99 37.08 90.71 62.95 138.8 78.91 8.96 2.56 16.97 4.34 24.04 5.46 7.08 1.1 13.42.6 18.76.24 10.74-1 17.9-3.74 22.33-7.2 8.82-6.91 7.01-16.62 1.1-21.21-4.16-3.2-10.2-6.48-18.07-9.81-3.91-1.78-8.39-3.1-13.12-5.28s-9.91-4.42-15.54-6.71c-3.77-1.35-8.15-2.92-13.09-4.7-4.94-1.76-10.17-4.52-16.06-7.04-5.83-2.67-12.28-5.31-19.03-8.52a22289 22289 0 0 1-20.98-11.58c-29.2-17.04-63.1-41.8-93.85-76.77-30.59-34.81-58.67-79.28-75.43-130.62-16.62-51.25-23.7-108.15-15.52-164.02 7.53-55.72 28.23-109.22 57.79-153.91 29.29-45.03 67.84-80.35 106.57-105.29 10.01-5.75 19.4-11.96 29.05-16.97 9.83-4.66 19.36-9.17 28.54-13.51 9.55-3.43 18.75-6.73 27.55-9.89 4.34-1.76 8.74-2.98 13.11-3.94 4.33-1.08 8.54-2.14 12.65-3.17 32.87-8.35 59.61-9.82 76.37-10.42 4.27-.03 9.34-.87 15.16-.43 5.82.27 12.39.58 19.65.92 14.61-.16 31.62 3.4 51.09 6.02 38.41 7.75 85.5 23.54 131.4 53.96 45.39 30.56 89.99 74.79 120.66 130.97 3.64 7.11 7.29 14.26 10.96 21.43 3.95 7.07 6.15 14.92 9.37 22.39 6.69 14.91 10.42 30.89 15.09 46.69 7.17 32.03 11.93 65.26 10.67 98.39.48 16.63-2.34 32.93-3.76 49.32-3.44 16-5.5 32.35-10.7 47.69-8.32 31.34-21.7 60.47-36.84 87.2-3.97 6.61-7.9 13.15-11.79 19.63-4.25 6.24-8.77 12.2-13.07 18.24-2.17 3.01-4.32 6.01-6.47 8.98-2.23 2.91-4.72 5.56-7.04 8.34-4.72 5.51-9.38 10.95-13.97 16.32-4.75 5.23-9.91 9.9-14.73 14.8-5 4.69-9.43 9.94-14.72 13.97-5.11 4.28-10.12 8.49-15.04 12.62-2.47 2.07-4.92 4.12-7.35 6.14-2.57 1.82-5.12 3.62-7.64 5.4-10.16 7.03-19.55 14.5-29.48 19.88-9.8 5.6-18.71 11.9-27.95 16-9.08 4.43-17.49 9-25.48 12.74-8.12 3.45-15.59 6.63-22.37 9.51-3.38 1.5-6.59 2.92-9.62 4.26q-4.605 1.725-8.67 3.24c-5.38 2.09-9.96 4.04-13.65 5.84-7.39 3.59-11.25 6.57-10.91 8.83.7 4.96 14.13 4.46 33.57 1.26 19.23-4.01 44-11.99 66.67-22.33 78.49-35.15 142.51-92.1 184.11-158.97 21.01-33.24 37.53-68.55 47.64-104.95 10.27-36.23 16.71-72.99 16.64-109.16 2.22-72.4-16.89-141.37-47.39-200.15Z" class="cls-1"/><path d="M640.61 783.06c16.94-9.81 32.03-22.08 45.2-35.61 13.43-13.33 24.32-28.57 33.57-44.21 9.46-15.61 15.87-32.41 21.46-48.99 4.63-16.88 8.52-33.72 9.58-50.58 1.74-16.86 1.01-33.44-.42-48.9-1.19-15.7-1.91-31.17-5.18-46.19-2.65-15.07-4.81-29.96-9.39-44.15-1.99-7.14-3.96-14.23-5.92-21.27-1.85-7.06-5-13.66-7.41-20.43-20.22-53.88-49.9-99.74-83.01-137.16-17.08-18.26-34.11-35.4-52.39-49.79-4.4-3.79-9.01-7.24-13.6-10.63-4.56-3.43-9.05-6.84-13.76-9.92l-6.92-4.71c-2.19-1.52-5.74-3.56-8.52-5.3-5.8-3.68-12.02-7.05-18.15-10.32-13.68 7.39-26.88 16.18-35.38 22.28-9.4 6.89-18.64 13.72-27.15 21.15-17.5 14.33-32.92 30-47.45 45.63-28.71 31.63-51.13 65.6-68.29 99.67-4.01 8.65-8.98 16.77-12.06 25.54-3.38 8.66-6.71 17.19-9.99 25.6-3.6 8.33-5.23 17.13-7.9 25.5-2.25 8.47-5.16 16.71-6.79 25.07-1.54 8.39-3.07 16.66-4.56 24.82-1.43 8.17-3.32 16.2-3.64 24.24l-2.01 23.75c-.51 7.89-1.74 15.33-1.3 23.45-.09 63.96 23.69 119.81 57.3 160.05a252.3 252.3 0 0 0 56.68 50.4c20.78 13.12 42.97 22.17 65.29 28.26 13.5 2.67 23.63 1.59 31.01-1.15-4.89 66.73-11.99 115.28-16.03 156.76 0 18.69 30.08 19.28 36.98 15.65 4.8-2.52 8.52-7.21 11.18-14.05 10.26-36.27 16.93-261.33 16.61-301.11v-2.5c1.31-1.07 2.61-2.13 3.89-3.17 3.04-2.38 5.99-4.7 8.87-6.97 11.61-8.9 22.35-16.27 32.26-22.62 19.83-12.71 36.38-21.33 50.05-29.89 6.53-6.19-13.96-28.22-19.97-32.02-4.18-2.65-8.38-3.8-12.6-3.46-9.86 2.28-35.59 20.84-60.57 40.51-1.34 1.08-2.62 2.1-3.96 3.18-1.38-25.55-3.49-56.6-6.39-88.39.99-.81 2.01-1.65 2.98-2.44l4.36-3.45 3.25-2.32a247 247 0 0 1 24.16-14.96c15.02-8.16 27.84-13.26 38.22-18.71 4.66-4.42-15.9-26.38-21.55-30.53-3.93-2.89-7.66-4.48-11.19-4.79-8.04.57-27.19 12.91-45.56 26.32-8.22-68.31-20.35-127.75-37.05-127.75-10.02 0-8.16 13.67-6.95 26.38 3.43 38.55 6.11 74.47 8.21 108.25-4.43-2.49-8.9-4.99-13.56-7.24-24.32-11.76-50.33-18.9-62.73-5.83-6.89 7.27-2.21 9.15 1.79 11.28 19.32 10.69 35.74 21.21 49.56 31.26 3.43 2.58 6.72 5.05 9.89 7.44 3.57 2.86 8.03 6.67 11.61 9.76 2.22 1.92 4.22 3.74 6.29 5.6 1.66 35.42 2.61 68.12 2.99 98.36-11.15-7.96-23.87-16.48-36.87-24.18-31.79-18.83-64.68-32.5-77.07-19.43-6.89 7.27-.84 10.45 4.43 13.78 25.53 16.58 47.51 32.36 66.26 47.07 4.65 3.74 9.14 7.35 13.46 10.82 2.13 1.78 4.23 3.53 6.29 5.25 2.22 1.92 4.39 3.8 6.52 5.64 6.1 5.42 11.69 10.54 17.07 15.55-.33 33.05-1.36 62.8-2.81 89.84-5.35-2.56-11.88-5.11-19.79-8.25-9.34-2.98-24.6-8.3-42.68-18.14-18.03-9.83-38.62-25.21-56.64-47.06-17.89-21.76-33.77-49.63-41.51-81.32-1.72-7.96-3.77-15.92-4.41-24.19-1.38-8.17-1.34-16.52-1.56-24.87-.15-8.42 1.12-17.8 1.57-26.69l.95-13.53c.19-4.53.64-9.03 1.59-13.45 3.19-17.76 5.52-35.69 11.06-52.63 3.99-17.37 11.06-33.5 17.03-49.55 14.1-31.26 30.78-59.56 48.83-83.14 36.42-47.07 74.33-76.07 91.66-88.23 1.98-1.39 4.42-3.11 7.28-5.12.28-.2.57-.41.89-.64l.02-.12c-7.21-5.04 22.38 13.21 42.7 30.72 22.09 18.41 45.47 42.01 66.56 70.41 20.85 28.45 40.46 61.31 53.43 97.84l2.73 6.74 2.07 6.98 4.2 14 4.27 14.05c1.39 4.7 2 9.58 3.05 14.37q2.91 14.475 5.79 28.86c.98 9.77 1.96 19.5 2.93 29.16 2.77 19.69 2.27 37.62.41 55.77-1.79 18.04-6.62 35.15-12.49 51.12-11.89 32.11-31.43 58.02-51.09 77.17-19.81 19.18-39.98 31.38-54.37 39.68-14.39 8.46-23.16 13.77-22.29 18.14.9 4.86 10.1 4.98 23.09 2.12 12.82-3.43 29.16-10.2 43.46-19.17Z" class="cls-1"/></svg>